<svg width="14" height="14" viewBox="0 0 14 14" fill="none" xmlns="http://www.w3.org/2000/svg">
  <path
    d="M13.5493 12.5765C13.6132 12.6404 13.6638 12.7162 13.6984 12.7996C13.733 12.8831 13.7508 12.9725 13.7508 13.0629C13.7508 13.1532 13.733 13.2427 13.6984 13.3261C13.6638 13.4096 13.6132 13.4854 13.5493 13.5493C13.4854 13.6132 13.4096 13.6638 13.3261 13.6984C13.2427 13.733 13.1532 13.7508 13.0629 13.7508C12.9725 13.7508 12.8831 13.733 12.7996 13.6984C12.7162 13.6638 12.6404 13.6132 12.5765 13.5493L6.87538 7.84733L1.17429 13.5493C1.04529 13.6783 0.87032 13.7508 0.687882 13.7508C0.505444 13.7508 0.330479 13.6783 0.201476 13.5493C0.072473 13.4203 3.59628e-09 13.2453 0 13.0629C-3.59628e-09 12.8804 0.072473 12.7055 0.201476 12.5765L5.90343 6.87538L0.201476 1.17429C0.072473 1.04529 0 0.87032 0 0.687882C0 0.505444 0.072473 0.330479 0.201476 0.201476C0.330479 0.072473 0.505444 0 0.687882 0C0.87032 0 1.04529 0.072473 1.17429 0.201476L6.87538 5.90343L12.5765 0.201476C12.7055 0.072473 12.8804 -3.59628e-09 13.0629 0C13.2453 3.59628e-09 13.4203 0.072473 13.5493 0.201476C13.6783 0.330479 13.7508 0.505444 13.7508 0.687882C13.7508 0.87032 13.6783 1.04529 13.5493 1.17429L7.84733 6.87538L13.5493 12.5765Z"
    fill="currentColor"
  />
</svg>
